<svg xmlns="http://www.w3.org/2000/svg" viewBox="0 0 150 150"><defs><style>.cls-1{fill:#f2f2f2;}.cls-2{fill:#292929;}.cls-3{fill:#1f4f53;}.cls-4{fill:#bc4924;}</style></defs><g id="Capa_2" data-name="Capa 2"><g id="Capa_1-2" data-name="Capa 1"><rect class="cls-1" width="150" height="150" rx="68"/><path class="cls-2" d="M62.19,89.26c0-9.05-7.65-16.52-17.74-17.27-1.43-.11-1.93-.65-2-1.87s.3-1.86,1.89-2.08c6.55-.88,10.92-4.87,11.87-10.77.3-1.87,1.72-1.41,2.94-1.41,1.45,0,1.45.94,1.32,1.86a15.15,15.15,0,0,1-7,10.78c-1.46,1-1.3,1.4.17,2.1,6,2.85,9.93,7.15,11.81,13,4,12.29-5.47,25-19.78,26.7-13.09,1.53-25-6.5-26.8-18.11-.39-2.53.17-3.17,2.45-3,1.78.15,1.55,1.42,1.7,2.36a16.84,16.84,0,0,0,5.55,10c5.74,5.17,14.06,6.6,21.81,3.77C57.41,102.8,62.2,96.24,62.19,89.26Z"/><path class="cls-3" d="M26.41,55.49c-1.37.15-1.87-.39-1.73-1.83.72-7.17,7.54-13.42,15.68-14.21,1-.1,2-.17,2.14,1.13.08,1.14.17,2.25-1.61,2.49a14.71,14.71,0,0,0-8.07,3.63,12.42,12.42,0,0,0-4,7C28.5,55.4,28.32,55.5,26.41,55.49Z"/><path class="cls-4" d="M100.29,65.35H118c1.6,0,2.16.55,2.16,2.14V86.42a1.75,1.75,0,0,1-2,2q-6,0-12.08,0c-.92,0-1.19-.22-1.45-1.13-.46-1.66-.83-3.34-1.43-5a4.89,4.89,0,0,0-.74-1.39,2.55,2.55,0,0,0-4.32.27A13,13,0,0,0,97,84.38c-.31,1.05-.6,2.11-.88,3.16a1.1,1.1,0,0,1-1,.9c-.23,0-.47,0-.7,0H82.66a4.72,4.72,0,0,1-.65,0,1.64,1.64,0,0,1-1.56-1.78c0-1.12,0-2.23,0-3.34V67.44c0-1.52.57-2.09,2.08-2.09Zm10.46,4.84a5.61,5.61,0,1,0,5.72,5.55A5.7,5.7,0,0,0,110.75,70.19Zm-20.43-.08A5.69,5.69,0,1,0,96,75.85,5.73,5.73,0,0,0,90.32,70.11Z"/><path class="cls-2" d="M84.88,39.52c4.17,0,8.33-.1,12.49,0a33.77,33.77,0,0,1,21.11,8.38A34.9,34.9,0,0,1,130.89,71a32.7,32.7,0,0,1-2.13,16.55,36,36,0,0,1-14,17.31A33.55,33.55,0,0,1,99,110.26c-9.25.67-18.51.11-27.76.32-1,0-1.45-.29-1.44-1.39,0-4.93.07-9.85,0-14.77,0-1.64,1-1.42,1.94-1.42s2-.24,2,1.41c-.09,3.57,0,7.15,0,10.73,0,1.2.32,1.63,1.58,1.62,7.27-.05,14.55.25,21.81-.08a31.43,31.43,0,0,0,29.76-26.12c1.85-10.93-1.15-20.58-9.07-28.39a30.6,30.6,0,0,0-19.21-8.84c-5-.47-10-.57-14.56,1.84-6.24,3.3-10.11,8.41-10.6,15.65C73.21,62.56,72.06,62,71.19,62s-1.77.23-1.76-1.21q.07-10,0-20c0-1.23.65-1.27,1.56-1.27C75.62,39.53,80.25,39.52,84.88,39.52Z"/></g></g></svg>