<svg xmlns="http://www.w3.org/2000/svg" viewBox="0 0 764.72 431.62"><defs><style>.cls-1{fill:#bc4924;}</style></defs><g id="Capa_2" data-name="Capa 2"><g id="Capa_1-2" data-name="Capa 1"><path class="cls-1" d="M382.49,49.53v7.21a48.15,48.15,0,0,0,48.15,48.15h44.63c42.9,0,64.38,51.87,34.05,82.2l-93,93a48.16,48.16,0,0,1-68.1,0L82.3,14.1A48.15,48.15,0,0,0,48.25,0h0C5.39,0-16.11,51.79,14.15,82.15L348.44,417.46a48.14,48.14,0,0,0,68.15.05L750.52,83.58c30.33-30.33,8.85-82.2-34-82.2H430.64A48.15,48.15,0,0,0,382.49,49.53Z"/></g></g></svg>