<?xml version="1.0" encoding="UTF-8"?><svg xmlns="http://www.w3.org/2000/svg" viewBox="0 0 128.58 128.58"><defs><style>.d{fill:#292929;}</style></defs><g id="a"/><g id="b"><g id="c"><g><path class="d" d="M98.33,22.96c-4.16,0-7.54,3.37-7.54,7.54s3.37,7.54,7.54,7.54,7.54-3.37,7.54-7.54-3.37-7.54-7.54-7.54Z"/><path class="d" d="M64.82,32.62c-17.46,0-31.66,14.2-31.66,31.66s14.2,31.66,31.66,31.66,31.66-14.21,31.66-31.66-14.2-31.66-31.66-31.66Zm0,51.95c-11.18,0-20.28-9.1-20.28-20.28s9.1-20.28,20.28-20.28,20.28,9.1,20.28,20.28-9.1,20.28-20.28,20.28Z"/><path class="d" d="M89.95,128.58H38.62C17.32,128.58,0,111.25,0,89.96V38.62C0,17.32,17.32,0,38.62,0h51.33c21.3,0,38.62,17.32,38.62,38.62v51.34c0,21.3-17.33,38.62-38.62,38.62ZM38.62,12.1c-14.63,0-26.52,11.9-26.52,26.52v51.34c0,14.63,11.9,26.52,26.52,26.52h51.33c14.63,0,26.53-11.9,26.53-26.52V38.62c0-14.63-11.9-26.52-26.53-26.52H38.62Z"/></g></g></g></svg>