<?xml version="1.0" encoding="UTF-8"?><svg xmlns="http://www.w3.org/2000/svg" viewBox="0 0 127.22 127.53"><defs><style>.d,.e{fill:#292929;}.e{fill-rule:evenodd;}</style></defs><g id="a"/><g id="b"><g id="c"><g><path class="d" d="M0,127.53l9.14-34.11c-5.18-9.34-7.9-19.81-7.9-30.43C1.24,28.26,29.5,0,64.23,0s62.99,28.26,62.99,62.99-28.26,62.99-62.99,62.99c-10.43,0-20.72-2.63-29.94-7.63L0,127.53Zm35.99-21.97l2.16,1.29c7.93,4.72,16.95,7.22,26.08,7.22,28.17,0,51.08-22.91,51.08-51.08S92.4,11.91,64.23,11.91,13.15,34.82,13.15,62.99c0,9.3,2.58,18.46,7.47,26.48l1.32,2.17-5.1,19.05,19.15-5.13Z"/><path class="e" d="M87.66,71.75c-2.59-1.55-5.97-3.28-9.02-2.03-2.34,.96-3.84,4.63-5.36,6.5-.78,.96-1.71,1.11-2.91,.63-8.8-3.5-15.54-9.38-20.39-17.47-.82-1.26-.67-2.25,.32-3.41,1.47-1.73,3.31-3.69,3.7-6.01,.4-2.33-.69-5.05-1.66-7.12-1.23-2.65-2.6-6.42-5.25-7.92-2.44-1.38-5.65-.61-7.82,1.16-3.75,3.05-5.56,7.84-5.5,12.58,.01,1.35,.18,2.69,.49,3.99,.76,3.13,2.2,6.05,3.83,8.82,1.23,2.09,2.56,4.12,4,6.08,4.7,6.39,10.56,11.94,17.33,16.1,3.39,2.07,7.03,3.89,10.81,5.14,4.24,1.4,8.01,2.86,12.58,1.99,4.79-.91,9.51-3.87,11.41-8.49,.56-1.37,.84-2.89,.53-4.33-.65-2.98-4.69-4.76-7.1-6.2Z"/></g></g></g></svg>