<svg xmlns="http://www.w3.org/2000/svg" viewBox="0 0 1050.9 202.6"><defs><style>.cls-1{fill:#1f4f53;}.cls-2{fill:#292929;}.cls-3{fill:#bc4924;}</style></defs><g id="Capa_2" data-name="Capa 2"><g id="Capa_1-2" data-name="Capa 1"><path class="cls-1" d="M222.57,120.24a35.77,35.77,0,0,1-6.5,2.33,39,39,0,0,1-7.3,1q-4.31.23-10.65.15t-16.43-.08v30.23H161.11V51.62h46.28a34.48,34.48,0,0,1,13.94,2.84,36.94,36.94,0,0,1,11.39,7.74,36.46,36.46,0,0,1,7.74,11.54,35.5,35.5,0,0,1,2.84,14.08,34.4,34.4,0,0,1-5.76,19.57A35.82,35.82,0,0,1,222.57,120.24Zm-40.88-17.09h25.7a15,15,0,0,0,11.09-4.59Q223,94,223,86.22A16.23,16.23,0,0,0,221.77,80a18.51,18.51,0,0,0-3.36-5.33,16.49,16.49,0,0,0-5-3.72,13.74,13.74,0,0,0-6.06-1.39h-25.7v33.58Zm64.1,50.67h-26l-15.62-19.28,17.08-11.09Z"/><path class="cls-1" d="M299.22,79.65a36.19,36.19,0,0,1,14.6,3,38.11,38.11,0,0,1,20.08,20.08,36.54,36.54,0,0,1,3,14.74,37.83,37.83,0,0,1-.87,8.18l-.15.29H298.79L289.44,111h27.74A21.76,21.76,0,0,0,310.39,101,17,17,0,0,0,299.22,97a17.8,17.8,0,0,0-7.44,1.6,19.24,19.24,0,0,0-6.06,4.3,19.5,19.5,0,0,0-4,6.4,21.89,21.89,0,0,0-1.46,8.07,19.86,19.86,0,0,0,1.32,6.91,21.1,21.1,0,0,0,3.79,6.47,21.85,21.85,0,0,0,6,4.88,15.83,15.83,0,0,0,7.88,2,22.75,22.75,0,0,0,7.23-1.09,13.48,13.48,0,0,0,6.21-4.9l.14-.14.29.14L330,139.08l-.29.3a36.48,36.48,0,0,1-13.36,11.48A37.3,37.3,0,0,1,299.22,155a37.78,37.78,0,0,1-14.82-2.92,37.21,37.21,0,0,1-12-8,38.24,38.24,0,0,1-8.1-12,37.37,37.37,0,0,1,0-29.34A38,38,0,0,1,284.4,82.64,37.13,37.13,0,0,1,299.22,79.65Z"/><path class="cls-1" d="M439.38,80.82v73H420.26v-36.6a19.44,19.44,0,0,0-1.61-7.9A20.56,20.56,0,0,0,399.82,97a19.21,19.21,0,0,0-7.89,1.62,22.31,22.31,0,0,0-6.49,4.32,19.27,19.27,0,0,0-4.46,6.45,20,20,0,0,0-1.6,8,19.13,19.13,0,0,0,1.6,7.77,20.28,20.28,0,0,0,4.46,6.44,21.6,21.6,0,0,0,6.49,4.4,19.36,19.36,0,0,0,7.89,1.61,17.08,17.08,0,0,0,7.74-1.61h.14v.3l7.3,13-.15.15Q407.71,155,397.19,155a36.82,36.82,0,0,1-14.6-2.92,37.22,37.22,0,0,1-12-8,38.44,38.44,0,0,1-8.11-12,37.48,37.48,0,0,1,0-29.34,38.2,38.2,0,0,1,20.08-20.08,36.19,36.19,0,0,1,14.6-3,29.62,29.62,0,0,1,13.29,2.82,27.78,27.78,0,0,1,9.78,8.18V80.82Z"/><path class="cls-1" d="M485.81,51.62v102.2H466.39l.15-102.2Z"/><path class="cls-1" d="M511.36,51.62h19.42V68.7H511.36Zm0,102.2v-73h19.42v73Z"/><path class="cls-1" d="M584.8,128.85a7.59,7.59,0,0,0,2.41,5.69,8,8,0,0,0,5.76,2.34h14.16v16.94H593a27.46,27.46,0,0,1-10.73-2.12,27.06,27.06,0,0,1-8.76-5.84,28.34,28.34,0,0,1-5.91-8.69,26.11,26.11,0,0,1-2.19-10.66v-21.9H554.87V88.41h10.51V62H584.8Zm22.33-40.44v16.2h-10.8l-9.05-16.2Z"/><path class="cls-1" d="M653.85,143.89,628.3,80.82h20.88V81L668,134Zm55.92-63.07-.14.29q-2.49,6.72-4.82,13.07l-4.38,11.89q-7.3,20.45-13.07,35.12T675,165.06q-6.57,9.48-14.82,13.72T639.55,183h-.3V163.16h.3q3.8,0,6.78-.29a21.35,21.35,0,0,0,5.48-1.24,17.57,17.57,0,0,0,4.6-2.63,20.21,20.21,0,0,0,4-4.45,47.33,47.33,0,0,0,3.8-6.43q1.89-3.8,3.94-9.05t4.53-12.19q2.47-6.93,5.55-15.7,2.32-6.57,5-14T688.89,81v-.14Z"/><path class="cls-1" d="M751.82,51.62v102.2H732.4l.15-102.2Z"/><path class="cls-1" d="M997.83,51.62,937.38,130v23.8H916.07V51.62h21.31V96.44l34.31-44.82Zm-45.56,76.79,8.33-22.92,37.23,48.33H971.69Z"/><path class="cls-2" d="M1048,77.39C1037.63,36.59,1004.8,7,963.32,1.25c-14.43-2-69.1-.75-81.93-.89H213.08c-4.32-.15-8.58-.09-12.71,0h-.05c-6,.13-11.69.32-16.85,0-15.58,0-28.41.09-41.24,0-3.93,0-5.77,1.1-5.73,5.38.14,17.83.1,35.66,0,53.49,0,3.4.89,5.35,4.77,5.32,3.6,0,5.85-.63,6.33-5,2.17-19.51,12.14-33.91,29.59-42.86,11.1-5.69,22.81-7.15,34.6-6.44a4.59,4.59,0,0,1,.52-.33l.48.38H938.13c.14,0,.26,0,.39,0H939a6,6,0,0,1,.75,0,98.42,98.42,0,0,1,25,1.56C1023,22.38,1055,81,1033.52,135.13A88.19,88.19,0,0,1,955,191.27c-13.39.62-26.83.48-40.26.34h0c-7.06-.07-14.12-.14-21.18-.09-.24,0-.46,0-.68,0a4.49,4.49,0,0,1-.84.1H212.41l-.1-.21c-2.72.1-5.43.16-8.15.21H180.74v0c-8.79-.07-17.59-.19-26.38-.13-4.25,0-6-1.34-5.9-5.75.22-9.16-.07-18.33.12-27.49.09-4.21-1.24-6-5.72-6-4.32,0-5.36,2-5.32,5.82.13,12.83.18,25.67,0,38.5-.07,4.38,1.55,5.86,5.85,5.79,11.82-.19,23.66-.05,35.49-.07,9.86,0,19.74.3,29.59,0l702.31.13,0-.14H918c15.32,0,30.69.75,45.92-1.18C1022.05,193.83,1062.38,134.28,1048,77.39Z"/><path class="cls-2" d="M110.08,142.17a49.14,49.14,0,0,0-45-49.25c-3.63-.3-4.92-1.83-5-5.32s.78-5.3,4.8-5.92C81.52,79.16,92.63,67.79,95,51c.76-5.32,4.37-4,7.47-4,3.68,0,3.68,2.67,3.36,5.31A44.08,44.08,0,0,1,88.15,83c-3.71,2.81-3.29,4,.43,6,15.11,8.13,25.21,20.39,30,37,10.09,35-13.87,71.36-50.23,76.13a60.45,60.45,0,0,1-68-51.65c-1-7.2.42-9,6.21-8.48,4.53.42,3.93,4.05,4.31,6.72a49.78,49.78,0,0,0,14.11,28.61C39.48,192,60.61,196.11,80.3,188,98,180.79,110.11,162.08,110.08,142.17Z"/><path class="cls-1" d="M19.22,45.89c-3.47.42-4.74-1.11-4.37-5.21C16.67,20.21,34,2.4,54.65.14c2.58-.29,5.2-.49,5.44,3.22.21,3.26.42,6.42-4.08,7.12A35.48,35.48,0,0,0,35.5,20.82a36.74,36.74,0,0,0-10.15,20.1C24.54,45.62,24.09,45.92,19.22,45.89Z"/><path class="cls-3" d="M833.91,62.78h69.65c6.3,0,8.48,2.17,8.48,8.44q0,37.24,0,74.49c0,2.46-.32,4.73-2.34,6.47a7.89,7.89,0,0,1-5.42,1.58q-23.74.09-47.5,0c-3.65,0-4.71-.89-5.71-4.47-1.84-6.5-3.28-13.12-5.64-19.47a19.71,19.71,0,0,0-2.93-5.46c-4.74-6-13-5.47-17,1.07-2.32,3.79-3.4,8-4.66,12.24s-2.35,8.28-3.46,12.43a4.33,4.33,0,0,1-4,3.53,25.36,25.36,0,0,1-2.75.16H764.52a17.8,17.8,0,0,1-2.53-.13c-4.08-.6-6.09-2.84-6.15-7-.06-4.38,0-8.76,0-13.14q0-31.26,0-62.5c0-6,2.25-8.25,8.2-8.25Zm41.17,19.08A22.18,22.18,0,0,0,852.63,104c0,11.75,9.73,21.81,21.25,22,13.46.19,23.71-9.44,23.67-22.26C897.52,91.76,887.33,81.86,875.08,81.86Zm-80.4-.34a22.54,22.54,0,0,0-22.58,22.07c-.08,13,10,22.75,23.55,22.71C807.1,126.27,817,116,817,104.11A22.4,22.4,0,0,0,794.68,81.52Z"/></g></g></svg>