<?xml version="1.0" encoding="UTF-8"?><svg xmlns="http://www.w3.org/2000/svg" viewBox="0 0 1050.9 202.6"><defs><style>.d{fill:#bc4924;}.e{letter-spacing:.12em;}.f{font-family:Quantify, Quantify;font-size:146px;}.f,.g{fill:#1f4f53;}.h{letter-spacing:.08em;}.i{fill:#f2f2f2;}</style></defs><g id="a"/><g id="b"><g id="c"><g><text class="f" transform="translate(156 153.82)"><tspan class="h" x="0" y="0">R</tspan><tspan class="e" x="102.35" y="0" xml:space="preserve">ealityl   K</tspan></text><path class="i" d="M1047.97,77.39c-10.34-40.8-43.16-70.4-84.65-76.15-14.43-2-69.1-.75-81.93-.89H213.08c-4.32-.14-8.59-.09-12.71,0h-.05c-5.99,.13-11.69,.32-16.85,.05-15.58,0-28.42,.09-41.25-.05-3.93-.04-5.77,1.11-5.73,5.38,.15,17.83,.1,35.66,.03,53.49-.01,3.39,.89,5.35,4.76,5.31,3.6-.04,5.85-.63,6.34-5.02,2.17-19.51,12.14-33.91,29.59-42.85,11.1-5.69,22.81-7.16,34.6-6.44,.16-.12,.34-.23,.52-.33l.48,.38H938.08s.04,0,.05,0c.14,0,.25,.03,.38,.04,.08,0,.15-.01,.22-.01,.03,0,.06,0,.1,0,.05,0,.1,0,.15,0,.26,0,.51,.02,.75,.05,8.29-.65,16.7,.06,25.05,1.56,58.18,10.45,90.16,69.07,68.73,123.2-13.43,33.94-44.43,54.55-78.52,56.14-13.4,.62-26.83,.48-40.27,.35h-.04c-7.06-.07-14.12-.14-21.18-.09-.24,0-.46,0-.68-.02-.26,.06-.54,.09-.83,.1H212.41c-.03-.07-.07-.14-.1-.22-2.72,.1-5.43,.17-8.15,.22h-23.42v.04c-8.8-.08-17.6-.19-26.39-.13-4.25,.03-6.01-1.34-5.9-5.75,.22-9.16-.07-18.33,.12-27.49,.09-4.2-1.24-6.01-5.72-5.96-4.33,.04-5.37,1.96-5.33,5.83,.13,12.83,.18,25.67-.02,38.49-.07,4.38,1.55,5.86,5.84,5.79,11.83-.19,23.66-.05,35.49-.06,9.86-.01,19.74,.3,29.59,0l702.31,.13,.05-.14c2.4,0,4.81,.01,7.21,0,15.32-.02,30.69,.74,45.93-1.18,58.12-7.35,98.45-66.9,84.03-123.79Z"/><path class="i" d="M110.08,142.17c-.03-25.8-19.41-47.08-45.04-49.25-3.63-.31-4.91-1.83-4.97-5.32-.05-3.51,.78-5.31,4.8-5.92,16.64-2.53,27.75-13.89,30.15-30.73,.76-5.32,4.37-4.02,7.47-4.02,3.68,0,3.68,2.67,3.36,5.31-1.56,12.74-7.58,23.05-17.71,30.75-3.7,2.81-3.29,3.99,.43,5.99,15.11,8.13,25.21,20.39,29.98,36.96,10.08,35.03-13.88,71.36-50.23,76.13C35.1,206.42,4.95,183.53,.3,150.42c-1.01-7.2,.43-9.03,6.22-8.48,4.52,.43,3.92,4.05,4.31,6.72,1.6,11.11,6.26,20.65,14.11,28.62,14.55,14.76,35.68,18.83,55.37,10.76,17.66-7.24,29.81-25.95,29.79-45.86Z"/><path class="g" d="M19.22,45.89c-3.47,.41-4.74-1.12-4.37-5.21C16.67,20.21,33.99,2.4,54.65,.14c2.58-.28,5.2-.49,5.44,3.22,.21,3.26,.42,6.42-4.07,7.12-7.93,1.23-14.78,4.51-20.51,10.35-5.58,5.68-8.81,12.35-10.15,20.1-.81,4.7-1.26,5-6.13,4.97Z"/><path class="d" d="M833.91,62.78c23.22,0,46.43,0,69.65,0,6.29,0,8.48,2.18,8.48,8.44,0,24.83,0,49.66,0,74.49,0,2.46-.31,4.73-2.34,6.47-1.59,1.37-3.53,1.57-5.42,1.58-15.84,.06-31.67,.06-47.51,.01-3.64-.01-4.7-.89-5.71-4.47-1.83-6.5-3.27-13.12-5.64-19.47-.73-1.96-1.63-3.82-2.92-5.46-4.75-6.01-12.98-5.47-16.98,1.07-2.32,3.79-3.4,8.05-4.66,12.24-1.24,4.12-2.34,8.27-3.46,12.43-.56,2.1-1.85,3.31-4.02,3.54-.92,.09-1.84,.15-2.76,.15-15.38,0-30.75,0-46.13,0-.84,0-1.7,0-2.53-.13-4.08-.6-6.09-2.84-6.15-7-.06-4.38-.02-8.76-.02-13.15,0-20.83,0-41.67,0-62.5,0-5.98,2.25-8.25,8.21-8.25,23.29,0,46.59,0,69.88,0Zm41.16,19.08c-12.49,0-22.45,9.82-22.44,22.12,0,11.75,9.73,21.81,21.24,21.97,13.47,.19,23.71-9.44,23.68-22.26-.03-11.94-10.22-21.84-22.48-21.84Zm-80.4-.34c-12.29-.02-22.51,9.97-22.58,22.06-.08,13.04,10,22.76,23.55,22.72,11.45-.03,21.31-10.27,21.36-22.19,.06-12.47-9.93-22.57-22.33-22.59Z"/></g></g></g></svg>